<?xml version="1.0" encoding="UTF-8" standalone="no"?>
<!-- Created with Inkscape (http://www.inkscape.org/) -->

<svg
   xmlns:dc="http://purl.org/dc/elements/1.1/"
   xmlns:cc="http://creativecommons.org/ns#"
   xmlns:rdf="http://www.w3.org/1999/02/22-rdf-syntax-ns#"
   xmlns:svg="http://www.w3.org/2000/svg"
   xmlns="http://www.w3.org/2000/svg"
   xmlns:sodipodi="http://sodipodi.sourceforge.net/DTD/sodipodi-0.dtd"
   xmlns:inkscape="http://www.inkscape.org/namespaces/inkscape"
   width="126.00001"
   height="126.00002"
   viewBox="0 0 126.00001 126.00002"
   version="1.1"
   id="svg8"
   inkscape:version="0.92.4 (5da689c313, 2019-01-14)"
   sodipodi:docname="Template 16x9.svg">
  <defs
     id="defs2" />
  <sodipodi:namedview
     id="base"
     pagecolor="#000e11"
     bordercolor="#666666"
     borderopacity="1.0"
     inkscape:pageopacity="0"
     inkscape:pageshadow="2"
     inkscape:zoom="3.959798"
     inkscape:cx="75.197318"
     inkscape:cy="65.440405"
     inkscape:document-units="px"
     inkscape:current-layer="layer1"
     showgrid="true"
     inkscape:window-width="1920"
     inkscape:window-height="1017"
     inkscape:window-x="1912"
     inkscape:window-y="-8"
     inkscape:window-maximized="1"
     units="px">
    <inkscape:grid
       type="xygrid"
       id="grid815"
       spacingx="5.0000001"
       spacingy="5.0000001"
       originx="-49.499995"
       originy="-224.49999" />
  </sodipodi:namedview>
  <metadata
     id="metadata5">
    <rdf:RDF>
      <cc:Work
         rdf:about="">
        <dc:format>image/svg+xml</dc:format>
        <dc:type
           rdf:resource="http://purl.org/dc/dcmitype/StillImage" />
        <dc:title></dc:title>
      </cc:Work>
    </rdf:RDF>
  </metadata>
  <g
     inkscape:label="Layer 1"
     inkscape:groupmode="layer"
     id="layer1"
     transform="translate(-98.499996,-773.0197)">
    <path
       style="fill:none;stroke:#c72f2f;stroke-width:2;stroke-linecap:butt;stroke-linejoin:round;stroke-miterlimit:4;stroke-dasharray:none;stroke-opacity:1"
       d="m 399.00001,723.5197 h 215 l 10e-6,200.00001 -10,20 v 129.99999 l 9.99999,20 v 20 h -215 v -19.7487 l 10,-20.2513 V 943.51972 l -10,-20.00001 z"
       id="path819"
       inkscape:connector-curvature="0"
       sodipodi:nodetypes="ccccccccccccc" />
    <path
       style="fill:none;stroke:#ffffff;stroke-width:1px;stroke-linecap:butt;stroke-linejoin:miter;stroke-opacity:1"
       d="M 99.000002,773.5197 H 104 l 5,5 h 35 l 5,-5 h 25 l 5,5 h 35 l 5,-5 h 5 v 20 h -5 l -5,5 v 25 l 5,5 v 10 l -5,5 v 25 l 5,5.00001 h 5 v 20 c 0,5 0,5 -5,5 H 104 c -4.999998,0 -4.999998,0 -4.999998,-5 v -20 H 104 l 5,-5.00001 v -25 l -5,-5 v -10 l 5,-5 v -25 l -5,-5 h -4.999998 z"
       id="path895"
       inkscape:connector-curvature="0"
       sodipodi:nodetypes="ccccccccccccccccccccsscsccccccccccc" />
    <path
       style="fill:none;stroke:#ffffff;stroke-width:1px;stroke-linecap:butt;stroke-linejoin:miter;stroke-opacity:1"
       d="m 99.000002,948.51971 v 99.99999 H 224 v -99.99999 z"
       id="path897"
       inkscape:connector-curvature="0" />
  </g>
</svg>
