<svg version="1.1" viewBox="0 0 126 126" xmlns="http://www.w3.org/2000/svg">
 <g transform="translate(-98.5 -773.02)" fill="none">
  <path d="m399 723.52h215l1e-5 200-10 20v130l10 20v20h-215v-19.749l10-20.251v-130l-10-20z" stroke="#c72f2f" stroke-linejoin="round" stroke-width="2"/>
  <path d="m99 773.52h5l5 5h35l5-5h25l5 5h35l5-5h5v25h-5l-5 5v20l5 5v5l-5 5v20l5 5h5v30c0 5 0 5-5 5h-115c-5 0-5 0-5-5l4e-6 -30h5l5-5v-20l-5-5v-5l5-5v-20l-5-5h-5z" stroke="#fff" stroke-width="1px"/>
  <path d="m99 948.52v100h125v-100z" stroke="#fff" stroke-width="1px"/>
 </g>
</svg>
