<svg version="1.1" viewBox="0 0 225 400" xmlns="http://www.w3.org/2000/svg" xmlns:osb="http://www.openswatchbook.org/uri/2009/osb">
 <defs>
  <filter id="filter4043" x="-.016839" y="-.0093214" width="1.0337" height="1.0186" color-interpolation-filters="sRGB">
   <feGaussianBlur stdDeviation="1.5225"/>
  </filter>
 </defs>
 <g transform="translate(-49 -723.52)" fill="none" stroke="#fff" stroke-width="3">
  <path d="m53 736.52 9-9h199l9 9v10.233l-4 4.767v10l4 5v35l-5 5v234l5 5v65l-9 9h-199l-9-9 4e-5 -65 4.0896-4.62 0.91036-237.38-5-5v-32l4-5v-10l-4-5z" fill="none" stroke="#fff" stroke-width="2"/>
 </g>
 <g transform="translate(-49,-723.52)" fill="#1c1d21" filter="url(#filter4043)" stroke="#fff" stroke-width="3">
  <path d="m53 736.52 9-9h199l9 9v10.233l-4 4.767v10l4 5v35l-5 5v234l5 5v65l-9 9h-199l-9-9 4e-5 -65 4.0896-4.62 0.91036-237.38-5-5v-32l4-5v-10l-4-5z" fill="#1c1d21" stroke="#fff" stroke-width="2"/>
 </g>
</svg>
